<svg width="11" height="11" viewBox="0 0 11 11" fill="none" xmlns="http://www.w3.org/2000/svg">
<path d="M0.892388 6.08202C0.930163 6.21706 0.987299 6.3455 1.06237 6.46354C0.969822 6.66942 0.787088 7.17466 0.939604 7.68553C1.04349 8.01984 1.26967 8.30316 1.57282 8.47787C1.56479 9.01948 1.78389 9.89207 2.67869 10.1452V10.1457C2.9096 10.6311 3.40351 10.9361 3.9413 10.9243C3.9616 10.9243 3.98285 10.9238 4.00362 10.9229C4.74072 10.896 5.19639 10.5239 5.43583 10.0866C5.67523 10.5239 6.1309 10.8964 6.86852 10.9234C6.88976 10.9243 6.91007 10.9248 6.93085 10.9248V10.9243C7.4682 10.9361 7.96211 10.6311 8.19297 10.1457C9.08824 9.89256 9.30687 9.01996 9.29884 8.47835V8.47787C9.60199 8.30316 9.82817 8.02031 9.93205 7.68553C10.0846 7.17461 9.90183 6.66938 9.80929 6.46354C9.88436 6.34549 9.94198 6.21705 9.97927 6.08202C10.1861 5.35814 9.89144 4.86752 9.62654 4.63422C9.73514 4.29046 9.71153 3.91837 9.55996 3.59114C9.28798 3.02877 8.69207 2.81061 8.63824 2.79172C8.67082 2.41066 8.57874 1.85866 8.05177 1.63673C7.93844 1.58857 7.82134 1.55032 7.70093 1.52293C7.6896 1.36663 7.57486 0.749014 6.47181 0.611596C6.17149 0.556823 5.86221 0.637095 5.62658 0.831637C5.55198 0.897272 5.48729 0.974241 5.43582 1.0597C5.38435 0.974237 5.31966 0.897264 5.24506 0.831637C5.00944 0.63709 4.70015 0.556825 4.39983 0.611596C3.29726 0.749474 3.18207 1.36663 3.17071 1.52293C3.0503 1.55032 2.9332 1.58857 2.81988 1.63673C2.2929 1.85866 2.2013 2.41065 2.23388 2.79219C2.18005 2.81108 1.58414 3.02923 1.31216 3.59162L1.31168 3.59114C1.16058 3.91837 1.1365 4.29047 1.24511 4.63422C0.980206 4.86748 0.685572 5.35809 0.892388 6.08202ZM5.66575 6.15568C5.69456 5.99466 5.75122 5.83931 5.83244 5.69717C5.95662 5.44927 6.22813 5.31186 6.50154 5.35767C6.61864 5.3723 6.72584 5.2892 6.74048 5.17209C6.75511 5.05499 6.67201 4.94779 6.5549 4.93316C6.22956 4.88074 5.89902 4.98651 5.66575 5.21883V3.3957C5.69786 3.37209 5.72242 3.34045 5.73753 3.3041C5.74367 3.28898 5.88627 2.93862 6.23097 2.92257V2.9221C6.34854 2.91596 6.43921 2.81585 6.43354 2.69827C6.42787 2.58069 6.32824 2.49003 6.21066 2.49476C6.01093 2.50326 5.81921 2.57739 5.66575 2.70583V1.7383C5.66575 1.73453 5.67708 1.35252 5.90893 1.15278C6.05342 1.04134 6.23994 0.998377 6.4189 1.03568C7.0677 1.11689 7.22399 1.37377 7.26224 1.48898C7.15883 1.49795 7.05684 1.52203 6.96051 1.56075C6.74047 1.64953 6.56292 1.81857 6.46282 2.0339C6.4189 2.14156 6.4699 2.26528 6.57709 2.31013C6.68522 2.35594 6.80988 2.30636 6.85757 2.19917C6.88071 2.14723 7.105 1.70195 7.886 2.0306C8.20946 2.16659 8.22977 2.53349 8.21276 2.74266C7.88222 2.72708 7.55782 2.83427 7.30189 3.04345C6.76737 3.49723 6.77729 4.28865 6.77823 4.32214C6.78059 4.4383 6.87551 4.53132 6.99166 4.53085H6.99544C7.11349 4.52896 7.20745 4.43169 7.20557 4.31364C7.20557 4.3075 7.20085 3.68798 7.58002 3.36784C7.79629 3.1851 8.10841 3.1289 8.50836 3.19974V3.20021C8.79072 3.30929 9.02636 3.51376 9.17462 3.7777C9.26245 3.96752 9.28653 4.18048 9.24403 4.38541C8.96355 4.23903 8.63727 4.20691 8.33365 4.29616C8.27887 4.31316 8.23307 4.35094 8.20663 4.40193C8.17971 4.45246 8.17499 4.51196 8.19246 4.56673C8.20993 4.62103 8.24865 4.66636 8.30012 4.69187C8.35159 4.71784 8.41061 4.72162 8.46492 4.7032C8.6878 4.64559 8.92436 4.68148 9.11985 4.80236L9.11749 4.80897L9.26765 4.89916C9.28843 4.91191 9.78092 5.21789 9.5675 5.96443C9.35643 6.70388 8.58486 6.64109 8.55276 6.63825H8.5537C8.4366 6.62739 8.33272 6.71285 8.32091 6.82948C8.30863 6.94658 8.39363 7.05094 8.51026 7.06369C8.55087 7.06794 8.59147 7.06983 8.63208 7.06983C8.93617 7.06983 9.23272 6.97775 9.48298 6.8054C9.57128 7.04905 9.58497 7.31395 9.52123 7.56563C9.43104 7.83289 9.2346 8.05105 8.97867 8.1691L8.85165 8.23615L8.86582 8.37922V8.37875C8.87762 8.5903 8.85307 8.80184 8.7931 9.00535C8.69677 9.38405 8.3908 9.67397 8.00737 9.75048C7.86618 9.74906 7.25989 9.70609 7.10832 9.08422H7.10784C7.16451 9.06344 7.21881 9.03747 7.27075 9.00678C7.71415 8.73857 7.81142 8.20168 7.81519 8.17902C7.83361 8.06333 7.75617 7.95472 7.64095 7.93443C7.52574 7.9146 7.41572 7.99062 7.39399 8.10537C7.35055 8.32163 7.22637 8.51381 7.04693 8.64225C6.87363 8.74613 6.64273 8.75274 6.36177 8.66208L6.36225 8.66255C6.24986 8.62619 6.12945 8.68805 6.09309 8.80043C6.0572 8.91281 6.11859 9.03275 6.23097 9.06911C6.37782 9.11822 6.53034 9.14608 6.68522 9.15222C6.7891 9.65605 7.18811 10.0475 7.69383 10.1419C7.5007 10.3889 7.19614 10.5216 6.88355 10.4956C5.90139 10.4602 5.70401 9.70611 5.66579 9.45206L5.66575 6.15568ZM1.60208 4.90008L1.75744 4.81084L1.75413 4.80092L1.75366 4.80139C1.94868 4.68099 2.18477 4.64557 2.4067 4.70318C2.46053 4.72112 2.51955 4.7164 2.57055 4.6909C2.62108 4.66493 2.6598 4.62007 2.67727 4.56576C2.69474 4.51146 2.69002 4.45244 2.66358 4.40191C2.63761 4.35138 2.59228 4.31314 2.53797 4.29614C2.23435 4.20689 1.90807 4.23853 1.62759 4.38491C1.58556 4.1814 1.60917 3.96985 1.69558 3.7805C1.84291 3.51466 2.07948 3.30926 2.36326 3.19971C2.76321 3.12888 3.07532 3.18507 3.29159 3.3678C3.66982 3.687 3.66652 4.30275 3.66605 4.3136C3.66416 4.43165 3.75765 4.52892 3.8757 4.53129H3.88043H3.87995C3.99611 4.53129 4.09102 4.43826 4.09385 4.3221C4.09432 4.28858 4.10424 3.49718 3.57019 3.04342H3.56972C3.31379 2.83423 2.98939 2.72705 2.65934 2.74263C2.64234 2.53297 2.66312 2.16656 2.98609 2.03056C3.76521 1.70239 3.99045 2.14483 4.01453 2.19866H4.01406C4.06033 2.30679 4.185 2.35685 4.29312 2.31199C4.40173 2.26666 4.4532 2.14248 4.40881 2.03386C4.30871 1.81855 4.13116 1.6495 3.91112 1.56072C3.81479 1.522 3.71374 1.49792 3.61033 1.48942C3.64999 1.36996 3.80912 1.11639 4.45273 1.03612V1.03564C4.63169 0.998341 4.8182 1.04131 4.96317 1.15322C5.19455 1.35295 5.20635 1.73449 5.20635 1.73449V2.66424H5.20588C5.0628 2.5613 4.89234 2.50228 4.71574 2.4952C4.59816 2.49 4.49853 2.58114 4.49334 2.69824C4.48768 2.81582 4.57787 2.91593 4.69544 2.92207C5.03921 2.93859 5.18227 3.2866 5.18888 3.30359C5.1936 3.31398 5.19974 3.3239 5.20588 3.33334V5.21837C4.97214 4.98652 4.64208 4.88074 4.31721 4.93363C4.19963 4.94827 4.11652 5.05498 4.13116 5.17209C4.1458 5.2892 4.25298 5.3723 4.37009 5.35767C5.03967 5.27362 5.18557 6.02393 5.20588 6.15521V9.45201C5.16763 9.70605 4.96979 10.4601 3.98812 10.4956C3.67601 10.5215 3.37143 10.3884 3.17878 10.1414C3.6845 10.0465 4.08257 9.656 4.18691 9.15216C4.34131 9.14602 4.49431 9.11816 4.64069 9.06906C4.75307 9.03317 4.81493 8.91276 4.77857 8.80037C4.74268 8.68799 4.62227 8.62613 4.50988 8.6625C4.22893 8.75316 3.99849 8.74655 3.82473 8.64266V8.64219C3.64529 8.51375 3.52158 8.32158 3.47766 8.10531C3.45641 7.98962 3.3464 7.91313 3.2307 7.93296C3.11502 7.95326 3.0371 8.06328 3.05646 8.17897C3.06024 8.20164 3.15751 8.73852 3.6009 9.00673C3.65284 9.03743 3.70715 9.0634 3.76381 9.08417C3.61177 9.70699 3.00453 9.75091 2.86429 9.75091C1.91093 9.53606 2.00206 8.42592 2.00631 8.37866L2.02047 8.23559L1.89345 8.16853V8.16901C1.63705 8.05096 1.44062 7.83281 1.35043 7.56601C1.28668 7.31434 1.30037 7.04944 1.38867 6.80531C1.63894 6.97766 1.93594 7.06973 2.23957 7.06973C2.28018 7.06973 2.32079 7.06785 2.3614 7.0636C2.47897 7.05179 2.56491 6.94744 2.5531 6.82986C2.5413 6.71228 2.43647 6.62634 2.31937 6.63815C2.28584 6.64051 1.51475 6.70379 1.30368 5.96434C1.09025 5.2178 1.58272 4.91189 1.60208 4.90008Z" fill="#2463EB"/>
</svg>
