<svg width="60" height="60" viewBox="0 0 60 60" fill="none" xmlns="http://www.w3.org/2000/svg">
<rect y="0.607666" width="59.1528" height="59.1528" rx="10" fill="#DFF1FE"/>
<path d="M16.3587 13.9993H14.1558V42.6374C14.1558 43.2217 14.3879 43.782 14.801 44.1951C15.2141 44.6082 15.7744 44.8403 16.3587 44.8403H44.9968V42.6374H16.3587V13.9993Z" fill="#2463EB"/>
<path d="M44.9967 21.7095H37.2865V23.9124H41.2407L32.8806 32.2725L28.1553 27.5362C28.0529 27.433 27.9311 27.351 27.7969 27.2951C27.6626 27.2392 27.5187 27.2104 27.3733 27.2104C27.2278 27.2104 27.0839 27.2392 26.9497 27.2951C26.8154 27.351 26.6936 27.433 26.5912 27.5362L18.5615 35.5769L20.1146 37.13L27.3733 29.8713L32.0985 34.6076C32.2009 34.7109 32.3228 34.7928 32.457 34.8487C32.5912 34.9047 32.7352 34.9335 32.8806 34.9335C33.026 34.9335 33.17 34.9047 33.3042 34.8487C33.4384 34.7928 33.5602 34.7109 33.6626 34.6076L42.7938 25.4655V29.4197H44.9967V21.7095Z" fill="#2463EB"/>
</svg>
