<svg width="22" height="22" viewBox="0 0 22 22" fill="none" xmlns="http://www.w3.org/2000/svg">
<path d="M16.85 12.4247H1.95004C1.57226 12.4247 1.25582 12.2967 1.0007 12.0407C0.745593 11.7847 0.617593 11.4682 0.616704 11.0913C0.615815 10.7144 0.743815 10.398 1.0007 10.142C1.25759 9.88598 1.57404 9.75798 1.95004 9.75798H16.85L10.3167 3.22465C10.05 2.95798 9.92204 2.64687 9.9327 2.29132C9.94337 1.93576 10.0825 1.62465 10.35 1.35798C10.6167 1.11354 10.9278 0.98554 11.2834 0.973984C11.6389 0.962429 11.95 1.09043 12.2167 1.35798L21.0167 10.158C21.15 10.2913 21.2447 10.4358 21.3007 10.5913C21.3567 10.7469 21.3843 10.9135 21.3834 11.0913C21.3825 11.2691 21.3549 11.4358 21.3007 11.5913C21.2465 11.7469 21.1518 11.8913 21.0167 12.0247L12.2167 20.8246C11.9723 21.0691 11.6669 21.1913 11.3007 21.1913C10.9345 21.1913 10.6176 21.0691 10.35 20.8246C10.0834 20.558 9.95004 20.2415 9.95004 19.8753C9.95004 19.5091 10.0834 19.1922 10.35 18.9247L16.85 12.4247Z" fill="white"/>
</svg>
