<svg width="36" height="41" viewBox="0 0 36 41" fill="none" xmlns="http://www.w3.org/2000/svg">
<path d="M8.26719 22.3905C8.417 22.3211 9.76529 21.7401 10.898 23.2364C11.9485 24.6231 10.7445 25.8453 10.6075 25.975V25.9732C10.2732 26.2856 10.2549 26.81 10.5673 27.1425C10.8779 27.4768 11.4023 27.4951 11.7366 27.1845C12.2573 26.6803 12.6373 26.0518 12.8437 25.3575C12.9241 25.2808 12.9899 25.1858 13.0337 25.0835C13.3187 24.2815 14.1865 23.8521 14.9959 24.1116C15.438 24.2248 15.8874 23.9618 16.0025 23.5215C16.1194 23.083 15.86 22.6318 15.4197 22.5112C14.4788 22.2207 13.4576 22.3906 12.661 22.9697C12.5386 22.7103 12.3888 22.4637 12.2152 22.2353C11.1885 20.7098 9.20989 20.1471 7.53449 20.9071C7.13073 21.1081 6.96446 21.5995 7.16545 22.0051C7.36641 22.4125 7.85613 22.5842 8.26719 22.3905Z" fill="#2463EB"/>
<path d="M0.318247 21.8092C0.464403 22.3317 0.685467 22.8286 0.975928 23.2853C0.617847 24.0819 -0.0891671 26.0367 0.500931 28.0133C0.902859 29.3068 1.77799 30.403 2.95089 31.079C2.91983 33.1745 3.76754 36.5506 7.2296 37.53V37.5318C8.123 39.4099 10.034 40.5901 12.1147 40.5444C12.1933 40.5444 12.2755 40.5426 12.3559 40.539C15.2078 40.4348 16.9708 38.9952 17.8972 37.3034C18.8235 38.9952 20.5865 40.4366 23.4404 40.5408C23.5226 40.5444 23.6012 40.5463 23.6816 40.5463V40.5444C25.7606 40.5901 27.6716 39.4099 28.5648 37.5318C32.0287 36.5525 32.8746 33.1763 32.8435 31.0808V31.079C34.0164 30.403 34.8915 29.3086 35.2935 28.0133C35.8836 26.0365 35.1766 24.0817 34.8185 23.2853C35.109 22.8286 35.3319 22.3316 35.4762 21.8092C36.2764 19.0084 35.1364 17.1102 34.1114 16.2075C34.5316 14.8775 34.4403 13.4378 33.8538 12.1718C32.8015 9.9959 30.4959 9.15184 30.2876 9.07874C30.4137 7.60441 30.0574 5.46865 28.0185 4.61C27.58 4.42365 27.127 4.27567 26.6611 4.1697C26.6173 3.56497 26.1733 1.17534 21.9055 0.643659C20.7436 0.431735 19.5469 0.742316 18.6353 1.49502C18.3466 1.74896 18.0963 2.04676 17.8972 2.37743C17.698 2.04675 17.4478 1.74893 17.1591 1.49502C16.2475 0.742298 15.0508 0.431744 13.8888 0.643659C9.6229 1.17712 9.17723 3.56497 9.13327 4.1697C8.6674 4.27566 8.21433 4.42365 7.77586 4.61C5.73697 5.46865 5.38254 7.60436 5.50859 9.08056C5.30032 9.15364 2.9947 9.99768 1.94237 12.1736L1.94054 12.1718C1.35592 13.4378 1.26275 14.8775 1.68294 16.2075C0.658024 17.11 -0.481942 19.0083 0.318247 21.8092ZM18.7868 22.0942C18.8983 21.4712 19.1175 20.8701 19.4317 20.3202C19.9122 19.361 20.9627 18.8294 22.0205 19.0066C22.4736 19.0632 22.8884 18.7417 22.945 18.2886C23.0016 17.8355 22.6801 17.4208 22.227 17.3641C20.9682 17.1614 19.6893 17.5706 18.7868 18.4695V11.4156C18.911 11.3242 19.006 11.2018 19.0645 11.0612C19.0883 11.0027 19.64 9.64712 20.9737 9.58501V9.58318C21.4286 9.55943 21.7794 9.17212 21.7574 8.71719C21.7355 8.26226 21.35 7.91148 20.8951 7.92977C20.1223 7.96265 19.3805 8.24948 18.7868 8.74642V5.00299C18.7868 4.98837 18.8306 3.51037 19.7277 2.73754C20.2867 2.30638 21.0084 2.14015 21.7008 2.28446C24.211 2.5987 24.8158 3.59257 24.9638 4.03833C24.5637 4.07305 24.169 4.16622 23.7963 4.31603C22.945 4.6595 22.258 5.31354 21.8707 6.14666C21.7008 6.5632 21.8981 7.04188 22.3128 7.21545C22.7312 7.39266 23.2135 7.20083 23.398 6.78611C23.4876 6.58515 24.3554 4.86232 27.3771 6.1339C28.6286 6.66007 28.7072 8.07963 28.6414 8.88894C27.3625 8.82865 26.1074 9.24337 25.1172 10.0527C23.049 11.8084 23.0874 14.8705 23.0911 15.0001C23.1002 15.4495 23.4674 15.8094 23.9169 15.8076H23.9315C24.3882 15.8003 24.7518 15.4239 24.7445 14.9672C24.7445 14.9434 24.7262 12.5465 26.1933 11.3078C27.03 10.6008 28.2376 10.3833 29.7851 10.6574V10.6592C30.8776 11.0813 31.7893 11.8724 32.3629 12.8936C32.7027 13.628 32.7959 14.452 32.6315 15.2449C31.5463 14.6785 30.2838 14.5543 29.1091 14.8996C28.8972 14.9653 28.72 15.1115 28.6177 15.3088C28.5135 15.5043 28.4953 15.7345 28.5628 15.9464C28.6304 16.1565 28.7803 16.3319 28.9794 16.4306C29.1785 16.5311 29.4069 16.5457 29.617 16.4744C30.4794 16.2515 31.3946 16.3904 32.151 16.8581L32.1419 16.8837L32.7229 17.2326C32.8032 17.2819 34.7088 18.4658 33.883 21.3542C33.0663 24.2152 30.0811 23.9723 29.9569 23.9613H29.9605C29.5074 23.9193 29.1055 24.2499 29.0598 24.7012C29.0123 25.1543 29.3412 25.558 29.7924 25.6074C29.9496 25.6238 30.1067 25.6311 30.2638 25.6311C31.4403 25.6311 32.5877 25.2749 33.556 24.608C33.8976 25.5507 33.9506 26.5756 33.704 27.5494C33.355 28.5835 32.595 29.4275 31.6048 29.8843L31.1133 30.1437L31.1681 30.6973V30.6955C31.2138 31.5139 31.1188 32.3324 30.8868 33.1198C30.5141 34.585 29.3302 35.7068 27.8467 36.0028C27.3005 35.9973 24.9547 35.831 24.3682 33.425H24.3664C24.5856 33.3446 24.7957 33.2441 24.9967 33.1253C26.7122 32.0876 27.0886 30.0104 27.1032 29.9227C27.1744 29.4751 26.8748 29.0548 26.429 28.9763C25.9832 28.8996 25.5576 29.1937 25.4735 29.6377C25.3054 30.4745 24.825 31.218 24.1307 31.7149C23.4602 32.1169 22.5668 32.1424 21.4798 31.7917L21.4816 31.7935C21.0468 31.6528 20.5809 31.8922 20.4402 32.327C20.3014 32.7618 20.5389 33.2258 20.9737 33.3665C21.5418 33.5565 22.132 33.6643 22.7312 33.6881C23.1331 35.6374 24.6769 37.1519 26.6336 37.5174C25.8864 38.4729 24.708 38.9862 23.4986 38.8858C19.6985 38.7487 18.9348 35.8311 18.7869 34.8482L18.7868 22.0942ZM3.06412 17.2362L3.66521 16.8909L3.65242 16.8525L3.65059 16.8543C4.40513 16.3885 5.3186 16.2514 6.17725 16.4743C6.38552 16.5438 6.61389 16.5255 6.81122 16.4268C7.0067 16.3264 7.15651 16.1528 7.22411 15.9427C7.29171 15.7326 7.27344 15.5042 7.17113 15.3087C7.07065 15.1132 6.89526 14.9652 6.68514 14.8995C5.51042 14.5542 4.248 14.6766 3.16279 15.2429C3.00019 14.4555 3.09154 13.637 3.42587 12.9044C3.99591 11.8759 4.9112 11.0812 6.00917 10.6573C7.55661 10.3832 8.76421 10.6006 9.60098 11.3077C11.0644 12.5427 11.0516 14.925 11.0498 14.967C11.0425 15.4238 11.4042 15.8001 11.861 15.8093H11.8792H11.8774C12.3268 15.8093 12.694 15.4494 12.705 14.9999C12.7068 14.8702 12.7452 11.8082 10.6789 10.0526H10.6771C9.68687 9.24323 8.43175 8.82852 7.15474 8.8888C7.08897 8.07762 7.16935 6.65993 8.41898 6.13377C11.4334 4.86405 12.3049 6.57589 12.3981 6.78415H12.3963C12.5753 7.20252 13.0576 7.39618 13.476 7.22262C13.8962 7.04723 14.0953 6.56676 13.9236 6.14653C13.5363 5.31347 12.8493 4.65939 11.998 4.31591C11.6253 4.1661 11.2343 4.07292 10.8342 4.04004C10.9877 3.57782 11.6033 2.59676 14.0935 2.28616V2.28433C14.7859 2.14001 15.5076 2.30626 16.0685 2.73925C16.9637 3.51203 17.0093 4.98823 17.0093 4.98823V8.58551H17.0075C16.4539 8.18723 15.7944 7.95888 15.1111 7.93147C14.6562 7.91138 14.2707 8.26398 14.2507 8.71707C14.2287 9.17198 14.5777 9.55931 15.0326 9.58307C16.3626 9.64701 16.9162 10.9935 16.9418 11.0592C16.96 11.0994 16.9838 11.1378 17.0075 11.1743V18.4676C16.1032 17.5706 14.8261 17.1614 13.5692 17.366C13.1143 17.4226 12.7927 17.8355 12.8493 18.2886C12.906 18.7417 13.3207 19.0632 13.7738 19.0066C16.3644 18.6814 16.9289 21.5844 17.0075 22.0924V34.848C16.8595 35.8309 16.0941 38.7485 12.2959 38.8855C11.0883 38.986 9.90988 38.4708 9.16451 37.5153C11.1212 37.1481 12.6613 35.6372 13.065 33.6878C13.6624 33.6641 14.2544 33.5563 14.8207 33.3663C15.2556 33.2274 15.4949 32.7616 15.3542 32.3267C15.2153 31.8919 14.7495 31.6526 14.3146 31.7933C13.2276 32.1441 12.336 32.1185 11.6637 31.7165V31.7147C10.9695 31.2178 10.4908 30.4742 10.3209 29.6375C10.2387 29.1899 9.81302 28.8939 9.36539 28.9706C8.91778 29.0492 8.61632 29.4749 8.69124 29.9225C8.70586 30.0102 9.08221 32.0874 10.7977 33.1252C10.9987 33.2439 11.2088 33.3444 11.428 33.4248C10.8398 35.8345 8.49032 36.0044 7.94769 36.0044C4.25908 35.1732 4.61168 30.878 4.62809 30.6951L4.6829 30.1415L4.19144 29.8821V29.8839C3.1994 29.4272 2.43939 28.5832 2.09044 27.5509C1.8438 26.5771 1.89678 25.5522 2.23842 24.6077C3.2067 25.2745 4.35584 25.6307 5.53062 25.6307C5.68773 25.6307 5.84485 25.6234 6.00196 25.607C6.45688 25.5613 6.78939 25.1576 6.74369 24.7027C6.69802 24.2477 6.29243 23.9152 5.83934 23.9609C5.70963 23.9701 2.72624 24.2149 1.90958 21.3539C1.08381 18.4654 2.98919 17.2819 3.06412 17.2362Z" fill="#2463EB"/>
<path d="M20.7984 24.1112C21.6077 23.8518 22.4755 24.2811 22.7605 25.0813C22.8044 25.1873 22.8701 25.2841 22.9542 25.3627C23.1588 26.0551 23.5388 26.6817 24.0577 27.1841C24.3902 27.4929 24.9109 27.4764 25.2215 27.1458C25.5339 26.8132 25.5193 26.2926 25.1904 25.9765C25.0497 25.8413 23.8476 24.6209 24.8963 23.2342C26.0253 21.7434 27.37 22.3153 27.5253 22.3883H27.5271C27.9363 22.5911 28.4333 22.4231 28.6342 22.0138C28.837 21.6046 28.6689 21.1077 28.2597 20.9049C26.5844 20.1467 24.6058 20.7094 23.579 22.2349C23.4054 22.4633 23.2556 22.7099 23.1332 22.9693C22.3385 22.3902 21.3154 22.2203 20.3745 22.5108C20.1607 22.5674 19.9799 22.7044 19.8684 22.8944C19.757 23.0844 19.7259 23.311 19.7826 23.5229C19.8392 23.7367 19.9781 23.9175 20.1681 24.029C20.3581 24.1386 20.5846 24.1678 20.7984 24.1112Z" fill="#2463EB"/>
</svg>
