<svg width="78" height="86" viewBox="0 0 78 86" fill="none" xmlns="http://www.w3.org/2000/svg">
<path d="M18.4068 46.8137C18.7272 46.6652 21.6099 45.4231 24.0318 48.6223C26.2779 51.5871 23.7037 54.2004 23.4108 54.4778V54.4739C22.6959 55.1418 22.6568 56.263 23.3248 56.9739C23.9889 57.6887 25.11 57.7278 25.8248 57.0637C26.9381 55.9856 27.7506 54.6418 28.192 53.1575C28.3639 52.9934 28.5045 52.7903 28.5983 52.5716C29.2076 50.8568 31.0631 49.9388 32.7936 50.4935C33.7389 50.7357 34.6998 50.1732 34.9459 49.2318C35.1959 48.2943 34.6412 47.3295 33.6998 47.0716C31.6881 46.4505 29.5045 46.8138 27.8014 48.052C27.5396 47.4973 27.2193 46.97 26.8482 46.4817C24.6529 43.22 20.4224 42.0169 16.8402 43.6419C15.977 44.0716 15.6214 45.1224 16.0512 45.9896C16.4809 46.8607 17.5279 47.2277 18.4068 46.8137Z" fill="#2463EB"/>
<path d="M1.41101 45.5707C1.72351 46.6879 2.19617 47.7504 2.81721 48.7269C2.05159 50.43 0.539911 54.6097 1.80161 58.8359C2.66098 61.6015 4.53211 63.9453 7.03991 65.3906C6.9735 69.8711 8.78601 77.0896 16.1883 79.1836V79.1875C18.0985 83.2031 22.1844 85.7266 26.6333 85.6289C26.8013 85.6289 26.9771 85.625 27.1489 85.6171C33.2466 85.3945 37.0161 82.3164 38.9969 78.6992C40.9774 82.3164 44.7469 85.3983 50.8489 85.621C51.0247 85.6289 51.1927 85.6328 51.3646 85.6328V85.6289C55.8099 85.7265 59.8958 83.2031 61.8056 79.1875C69.2118 77.0937 71.0204 69.875 70.954 65.3945V65.3906C73.4618 63.9453 75.3329 61.6054 76.1923 58.8359C77.454 54.6093 75.9423 50.4297 75.1767 48.7269C75.7978 47.7503 76.2744 46.6878 76.5829 45.5707C78.2938 39.5824 75.8563 35.5237 73.6649 33.5937C74.5633 30.7499 74.368 27.6718 73.1141 24.9648C70.8641 20.3125 65.9344 18.5078 65.4891 18.3515C65.7586 15.1992 64.9969 10.6327 60.6375 8.79676C59.7 8.39832 58.7313 8.08192 57.7352 7.85535C57.6414 6.56235 56.6922 1.45305 47.5672 0.316246C45.0828 -0.136874 42.5242 0.527186 40.575 2.13655C39.9578 2.67952 39.4227 3.31625 38.9969 4.02325C38.5711 3.31622 38.0359 2.67945 37.4188 2.13655C35.4696 0.527146 32.911 -0.136854 30.4266 0.316246C21.3055 1.45685 20.3526 6.56235 20.2586 7.85535C19.2625 8.08191 18.2938 8.39832 17.3563 8.79676C12.9969 10.6327 12.2391 15.1991 12.5086 18.3554C12.0633 18.5116 7.13358 20.3163 4.88358 24.9687L4.87967 24.9648C3.62967 27.6718 3.43047 30.75 4.32889 33.5937C2.13749 35.5233 -0.29989 39.582 1.41101 45.5707ZM40.899 46.18C41.1373 44.848 41.606 43.5628 42.2779 42.387C43.3052 40.3362 45.5513 39.1995 47.8131 39.5784C48.7819 39.6995 49.6686 39.012 49.7897 38.0432C49.9108 37.0745 49.2233 36.1877 48.2545 36.0666C45.5631 35.633 42.8287 36.508 40.899 38.4299V23.3479C41.1646 23.1526 41.3678 22.8909 41.4928 22.5901C41.5435 22.4651 42.7233 19.5667 45.5748 19.4339V19.43C46.5474 19.3792 47.2975 18.5511 47.2506 17.5784C47.2037 16.6057 46.3795 15.8557 45.4068 15.8948C43.7545 15.9651 42.1685 16.5784 40.899 17.6409V9.63702C40.899 9.60577 40.9927 6.44562 42.9107 4.79322C44.106 3.87134 45.649 3.51592 47.1295 3.82447C52.4967 4.49635 53.7897 6.62137 54.1061 7.57447C53.2506 7.64868 52.4069 7.84791 51.61 8.16822C49.7897 8.9026 48.3209 10.301 47.4928 12.0823C47.1295 12.9729 47.5514 13.9964 48.4381 14.3675C49.3326 14.7464 50.3639 14.3363 50.7584 13.4495C50.9498 13.0199 52.8053 9.33625 59.2662 12.055C61.942 13.18 62.11 16.2152 61.9693 17.9456C59.2349 17.8167 56.5513 18.7035 54.4341 20.4339C50.0122 24.1878 50.0943 30.7349 50.1021 31.0119C50.1216 31.9729 50.9068 32.7424 51.8677 32.7385H51.8989C52.8755 32.7229 53.6528 31.9182 53.6372 30.9416C53.6372 30.8909 53.5982 25.7658 56.7349 23.1174C58.524 21.6057 61.106 21.1408 64.4146 21.7268V21.7308C66.7505 22.6331 68.6998 24.3246 69.9263 26.5081C70.6529 28.0784 70.8521 29.8401 70.5005 31.5354C68.1802 30.3245 65.481 30.0588 62.9693 30.7971C62.5162 30.9377 62.1373 31.2502 61.9185 31.6721C61.6959 32.09 61.6568 32.5822 61.8013 33.0354C61.9459 33.4846 62.2662 33.8596 62.692 34.0706C63.1178 34.2854 63.606 34.3167 64.0553 34.1643C65.8991 33.6878 67.8561 33.9846 69.4733 34.9846L69.4537 35.0393L70.6959 35.7854C70.8678 35.8909 74.942 38.4221 73.1764 44.5979C71.4303 50.7151 65.0475 50.1956 64.7819 50.1721H64.7897C63.821 50.0823 62.9617 50.7893 62.864 51.7541C62.7624 52.7229 63.4655 53.5861 64.4304 53.6916C64.7663 53.7268 65.1022 53.7424 65.4381 53.7424C67.9538 53.7424 70.407 52.9807 72.4772 51.5549C73.2077 53.5705 73.321 55.7619 72.7937 57.844C72.0476 60.0549 70.4226 61.8596 68.3054 62.8362L67.2546 63.3909L67.3717 64.5745V64.5706C67.4694 66.3206 67.2663 68.0706 66.7702 69.7542C65.9733 72.887 63.4421 75.2854 60.2702 75.9183C59.1022 75.9066 54.0866 75.5511 52.8327 70.4066H52.8288C53.2975 70.2347 53.7468 70.0199 54.1765 69.766C57.8445 67.5471 58.6492 63.1058 58.6804 62.9183C58.8327 61.9612 58.1921 61.0628 57.239 60.8949C56.2859 60.7308 55.3757 61.3597 55.196 62.309C54.8366 64.0981 53.8093 65.6879 52.3249 66.7504C50.8913 67.6097 48.9811 67.6644 46.6569 66.9144L46.6608 66.9183C45.7311 66.6175 44.735 67.1293 44.4342 68.0589C44.1373 68.9886 44.6451 69.9808 45.5748 70.2816C46.7896 70.6879 48.0514 70.9183 49.3326 70.9691C50.192 75.1371 53.4928 78.3753 57.6764 79.1566C56.0787 81.1996 53.5592 82.2972 50.9733 82.0824C42.8483 81.7895 41.2155 75.5512 40.8993 73.4496L40.899 46.18ZM7.28201 35.793L8.56721 35.0548L8.53987 34.9727L8.53596 34.9766C10.1493 33.9805 12.1024 33.6875 13.9383 34.1641C14.3836 34.3126 14.8719 34.2735 15.2938 34.0626C15.7117 33.8477 16.032 33.4766 16.1766 33.0274C16.3211 32.5782 16.282 32.0899 16.0633 31.6719C15.8485 31.2539 15.4735 30.9375 15.0242 30.7969C12.5125 30.0586 9.81329 30.3203 7.49299 31.5312C7.14533 29.8476 7.34065 28.0976 8.05549 26.5312C9.27429 24.332 11.2313 22.6328 13.5789 21.7265C16.8875 21.1406 19.4695 21.6055 21.2586 23.1171C24.3875 25.7577 24.3602 30.8515 24.3563 30.9413C24.3407 31.9179 25.1141 32.7225 26.0907 32.7421H26.1298H26.1258C27.0868 32.7421 27.8719 31.9726 27.8953 31.0116C27.8993 30.7343 27.9813 24.1874 23.5633 20.4336H23.5594C21.4422 18.7031 18.7586 17.8164 16.0282 17.9453C15.8876 16.2109 16.0595 13.1797 18.7313 12.0547C25.1766 9.33995 27.0399 13.0001 27.2391 13.4453H27.2352C27.618 14.3399 28.6493 14.7539 29.5438 14.3828C30.4423 14.0078 30.868 12.9805 30.5009 12.082C29.6727 10.3008 28.204 8.90235 26.3837 8.16795C25.5868 7.84764 24.7509 7.64842 23.8954 7.57811C24.2235 6.58983 25.5399 4.49221 30.8642 3.82811V3.8242C32.3447 3.51561 33.8876 3.87108 35.0869 4.79686C37.001 6.44916 37.0986 9.60546 37.0986 9.60546V17.2969H37.0947C35.9111 16.4453 34.5009 15.9571 33.04 15.8985C32.0673 15.8555 31.2431 16.6094 31.2002 17.5782C31.1533 18.5508 31.8994 19.379 32.8721 19.4298C35.7159 19.5665 36.8994 22.4454 36.9541 22.586C36.9931 22.6719 37.0439 22.7539 37.0947 22.8321V38.4261C35.1611 36.5081 32.4306 35.6331 29.7431 36.0706C28.7704 36.1916 28.0829 37.0745 28.204 38.0433C28.3251 39.012 29.2118 39.6995 30.1806 39.5785C35.7197 38.8831 36.9267 45.0902 37.0947 46.1762V73.4492C36.7783 75.5508 35.1416 81.7889 27.0207 82.0819C24.4387 82.2968 21.9191 81.1952 20.3254 79.1523C24.509 78.3671 27.802 75.1367 28.6652 70.9687C29.9425 70.9179 31.2082 70.6874 32.4191 70.2812C33.3488 69.9843 33.8605 68.9882 33.5597 68.0584C33.2628 67.1288 32.2667 66.6171 31.337 66.9179C29.0128 67.6679 27.1065 67.6132 25.669 66.7538V66.7499C24.1846 65.6874 23.1612 64.0976 22.7979 62.3085C22.6221 61.3515 21.712 60.7187 20.7549 60.8827C19.7978 61.0507 19.1533 61.9608 19.3135 62.9179C19.3447 63.1054 20.1494 67.5468 23.8174 69.7656C24.2471 70.0195 24.6963 70.2343 25.1651 70.4062C23.9073 75.5585 18.8839 75.9218 17.7237 75.9218C9.83698 74.1445 10.5909 64.9608 10.626 64.5698L10.7432 63.3862L9.69237 62.8315V62.8354C7.57127 61.8589 5.94627 60.0542 5.20017 57.8471C4.67283 55.7651 4.78611 53.5737 5.51658 51.5541C7.58688 52.9799 10.0439 53.7416 12.5557 53.7416C12.8916 53.7416 13.2276 53.726 13.5635 53.6908C14.5361 53.5932 15.2471 52.7299 15.1494 51.7572C15.0517 50.7846 14.1845 50.0736 13.2158 50.1713C12.9384 50.1909 6.55958 50.7143 4.81348 44.5971C3.04788 38.4213 7.12181 35.8907 7.28201 35.793Z" fill="#2463EB"/>
<path d="M45.1999 50.4927C46.9304 49.938 48.7858 50.8559 49.3952 52.5669C49.4889 52.7934 49.6296 53.0004 49.8093 53.1684C50.2468 54.6489 51.0593 55.9887 52.1687 57.0629C52.8796 57.7231 53.9929 57.6879 54.657 56.9809C55.3249 56.2699 55.2937 55.1567 54.5905 54.4809C54.2898 54.1918 51.7194 51.5825 53.9616 48.6176C56.3757 45.4301 59.2507 46.6528 59.5827 46.809H59.5866C60.4616 47.2426 61.5241 46.8832 61.9538 46.0082C62.3874 45.1332 62.0281 44.0707 61.1531 43.6371C57.5711 42.016 53.3406 43.2191 51.1451 46.4809C50.774 46.9692 50.4537 47.4965 50.1919 48.0512C48.4927 46.8129 46.3052 46.4496 44.2935 47.0707C43.8365 47.1918 43.4498 47.4848 43.2115 47.891C42.9733 48.2973 42.9068 48.7817 43.0279 49.2348C43.149 49.6919 43.4459 50.0786 43.8522 50.3168C44.2584 50.5512 44.7428 50.6138 45.1999 50.4927Z" fill="#2463EB"/>
</svg>
