<svg width="60" height="60" viewBox="0 0 60 60" fill="none" xmlns="http://www.w3.org/2000/svg">
<rect y="0.70752" width="59.1528" height="59.1528" rx="10" fill="#DFF1FE"/>
<path d="M21.7774 31.7645C21.8987 31.7083 22.9906 31.2378 23.908 32.4496C24.7588 33.5727 23.7837 34.5625 23.6728 34.6676V34.6661C23.402 34.9192 23.3872 35.3438 23.6402 35.6131C23.8918 35.8839 24.3164 35.8987 24.5872 35.6471C25.0089 35.2388 25.3167 34.7298 25.4839 34.1675C25.549 34.1054 25.6022 34.0284 25.6377 33.9456C25.8686 33.296 26.5714 32.9483 27.2269 33.1584C27.5849 33.2502 27.9489 33.0371 28.0421 32.6805C28.1368 32.3254 27.9267 31.9599 27.5701 31.8622C26.8081 31.627 25.981 31.7646 25.3359 32.2336C25.2367 32.0235 25.1154 31.8238 24.9749 31.6388C24.1433 30.4033 22.5408 29.9476 21.1839 30.5631C20.8569 30.7259 20.7223 31.1239 20.8851 31.4524C21.0478 31.7824 21.4444 31.9214 21.7774 31.7645Z" fill="#2463EB"/>
<path d="M15.3393 31.2937C15.4577 31.7169 15.6367 32.1193 15.8719 32.4892C15.5819 33.1343 15.0093 34.7176 15.4872 36.3184C15.8128 37.366 16.5215 38.2538 17.4715 38.8012C17.4463 40.4984 18.1329 43.2327 20.9368 44.0258V44.0273C21.6603 45.5484 23.208 46.5043 24.8932 46.4673C24.9568 46.4673 25.0234 46.4658 25.0885 46.4628C27.3982 46.3785 28.8261 45.2125 29.5764 43.8424C30.3266 45.2125 31.7544 46.3799 34.0658 46.4643C34.1323 46.4672 34.196 46.4687 34.2611 46.4687V46.4672C35.9449 46.5042 37.4926 45.5484 38.216 44.0273C41.0214 43.2342 41.7064 40.4999 41.6813 38.8027V38.8012C42.6312 38.2538 43.34 37.3674 43.6655 36.3184C44.1434 34.7174 43.5708 33.1342 43.2808 32.4892C43.5161 32.1193 43.6966 31.7168 43.8135 31.2937C44.4615 29.0254 43.5382 27.488 42.7082 26.757C43.0485 25.6798 42.9745 24.5138 42.4995 23.4884C41.6473 21.7262 39.7799 21.0426 39.6113 20.9834C39.7134 19.7893 39.4248 18.0596 37.7735 17.3642C37.4184 17.2133 37.0515 17.0934 36.6742 17.0076C36.6387 16.5178 36.2791 14.5825 32.8227 14.1519C31.8816 13.9803 30.9125 14.2318 30.1741 14.8414C29.9403 15.0471 29.7376 15.2883 29.5764 15.5561C29.4151 15.2882 29.2124 15.047 28.9786 14.8414C28.2403 14.2318 27.2711 13.9803 26.33 14.1519C22.8751 14.5839 22.5141 16.5178 22.4785 17.0076C22.1012 17.0934 21.7343 17.2133 21.3792 17.3642C19.7279 18.0596 19.4408 19.7893 19.5429 20.9849C19.3742 21.0441 17.5069 21.7276 16.6547 23.4899L16.6532 23.4884C16.1797 24.5138 16.1042 25.6798 16.4446 26.757C15.6145 27.4879 14.6912 29.0253 15.3393 31.2937ZM30.2969 31.5245C30.3871 31.02 30.5647 30.5332 30.8192 30.0878C31.2083 29.311 32.0591 28.8804 32.9158 29.0239C33.2828 29.0698 33.6187 28.8094 33.6645 28.4424C33.7104 28.0755 33.45 27.7396 33.083 27.6937C32.0636 27.5295 31.0278 27.8609 30.2969 28.5889V22.876C30.3975 22.802 30.4744 22.7029 30.5218 22.589C30.541 22.5416 30.9879 21.4437 32.068 21.3934V21.3919C32.4364 21.3727 32.7205 21.059 32.7027 20.6906C32.685 20.3221 32.3728 20.038 32.0043 20.0529C31.3785 20.0795 30.7777 20.3118 30.2968 20.7143V17.6825C30.2968 17.6706 30.3323 16.4736 31.0588 15.8477C31.5116 15.4985 32.0961 15.3639 32.6569 15.4808C34.6899 15.7353 35.1797 16.5402 35.2995 16.9012C34.9755 16.9293 34.6559 17.0048 34.354 17.1261C33.6645 17.4043 33.1082 17.934 32.7945 18.6087C32.6569 18.9461 32.8167 19.3338 33.1526 19.4743C33.4914 19.6179 33.882 19.4625 34.0315 19.1266C34.104 18.9639 34.8068 17.5686 37.2541 18.5984C38.2677 19.0245 38.3313 20.1742 38.278 20.8297C37.2423 20.7809 36.2257 21.1167 35.4238 21.7722C33.7488 23.1942 33.7799 25.6741 33.7829 25.779C33.7903 26.143 34.0877 26.4345 34.4516 26.4331H34.4635C34.8334 26.4271 35.1278 26.1223 35.1219 25.7524C35.1219 25.7332 35.1071 23.7919 36.2953 22.7887C36.973 22.2161 37.951 22.04 39.2043 22.262V22.2634C40.0891 22.6052 40.8275 23.2459 41.292 24.073C41.5673 24.6678 41.6427 25.3351 41.5096 25.9773C40.6306 25.5186 39.6082 25.418 38.6568 25.6976C38.4852 25.7509 38.3417 25.8693 38.2588 26.0291C38.1745 26.1874 38.1597 26.3738 38.2144 26.5455C38.2691 26.7156 38.3905 26.8577 38.5518 26.9376C38.713 27.019 38.898 27.0308 39.0682 26.9731C39.7666 26.7926 40.5079 26.9051 41.1204 27.2838L41.113 27.3046L41.5836 27.5872C41.6487 27.6271 43.1919 28.5859 42.5231 30.9252C41.8617 33.2424 39.444 33.0456 39.3434 33.0367H39.3464C38.9794 33.0026 38.6539 33.2705 38.6169 33.6359C38.5784 34.0029 38.8448 34.3299 39.2102 34.3698C39.3375 34.3831 39.4647 34.389 39.592 34.389C40.5449 34.389 41.4741 34.1005 42.2583 33.5605C42.535 34.3239 42.5779 35.154 42.3782 35.9427C42.0955 36.7801 41.48 37.4637 40.678 37.8337L40.28 38.0438L40.3244 38.4921V38.4906C40.3614 39.1535 40.2845 39.8164 40.0965 40.4541C39.7947 41.6408 38.8359 42.5493 37.6344 42.789C37.192 42.7846 35.2922 42.6499 34.8172 40.7012H34.8157C34.9933 40.6361 35.1634 40.5547 35.3262 40.4586C36.7156 39.6181 37.0204 37.9358 37.0322 37.8648C37.0899 37.5022 36.8473 37.1619 36.4862 37.0983C36.1252 37.0362 35.7804 37.2744 35.7124 37.634C35.5762 38.3116 35.1871 38.9138 34.6248 39.3163C34.0818 39.6418 33.3582 39.6625 32.4779 39.3784L32.4793 39.3799C32.1272 39.266 31.7499 39.4598 31.6359 39.812C31.5235 40.1641 31.7158 40.54 32.068 40.6539C32.5281 40.8078 33.0061 40.8951 33.4914 40.9143C33.8169 42.4931 35.0672 43.7197 36.6519 44.0156C36.0467 44.7895 35.0924 45.2053 34.1129 45.1239C31.0352 45.0129 30.4167 42.65 30.297 41.8539L30.2969 31.5245ZM17.5632 27.5901L18.05 27.3104L18.0396 27.2793L18.0381 27.2808C18.6492 26.9035 19.389 26.7925 20.0845 26.973C20.2531 27.0293 20.4381 27.0145 20.5979 26.9346C20.7562 26.8532 20.8776 26.7126 20.9323 26.5425C20.9871 26.3723 20.9723 26.1873 20.8894 26.029C20.808 25.8707 20.666 25.7508 20.4958 25.6976C19.5444 25.4179 18.522 25.5171 17.6431 25.9757C17.5114 25.338 17.5854 24.6751 17.8561 24.0818C18.3178 23.2488 19.0591 22.6051 19.9483 22.2618C21.2016 22.0399 22.1796 22.216 22.8573 22.7886C24.0425 23.7888 24.0322 25.7183 24.0307 25.7523C24.0248 26.1222 24.3177 26.427 24.6877 26.4344H24.7024H24.701C25.065 26.4344 25.3624 26.1429 25.3712 25.7789C25.3727 25.6739 25.4038 23.194 23.7303 21.7721H23.7288C22.9269 21.1166 21.9104 20.7807 20.8761 20.8296C20.8229 20.1726 20.888 19.0244 21.9 18.5983C24.3414 17.57 25.0472 18.9564 25.1227 19.125H25.1212C25.2662 19.4639 25.6568 19.6207 25.9957 19.4801C26.336 19.3381 26.4972 18.949 26.3582 18.6086C26.0445 17.9339 25.4881 17.4042 24.7986 17.126C24.4968 17.0047 24.1801 16.9292 23.8561 16.9026C23.9804 16.5282 24.479 15.7337 26.4958 15.4821V15.4807C27.0566 15.3638 27.641 15.4984 28.0953 15.8491C28.8203 16.475 28.8573 17.6705 28.8573 17.6705V20.5839H28.8558C28.4075 20.2614 27.8733 20.0764 27.3199 20.0542C26.9515 20.038 26.6393 20.3235 26.6231 20.6905C26.6053 21.0589 26.8879 21.3726 27.2563 21.3919C28.3335 21.4436 28.7818 22.5341 28.8026 22.5874C28.8174 22.6199 28.8366 22.651 28.8558 22.6806V28.5874C28.1234 27.8609 27.0891 27.5295 26.0711 27.6952C25.7027 27.741 25.4423 28.0754 25.4881 28.4424C25.534 28.8094 25.8699 29.0698 26.2368 29.0239C28.335 28.7605 28.7922 31.1117 28.8558 31.5231V41.8537C28.736 42.6498 28.116 45.0127 25.0399 45.1237C24.0619 45.2051 23.1075 44.7878 22.5038 44.014C24.0885 43.7166 25.3359 42.4929 25.6628 40.9141C26.1467 40.8949 26.6261 40.8076 27.0848 40.6537C27.4369 40.5413 27.6307 40.164 27.5168 39.8118C27.4044 39.4596 27.027 39.2658 26.6749 39.3797C25.7945 39.6638 25.0724 39.6431 24.5279 39.3176V39.3161C23.9656 38.9137 23.578 38.3115 23.4404 37.6338C23.3738 37.2713 23.029 37.0316 22.6665 37.0937C22.304 37.1573 22.0598 37.5021 22.1205 37.8646C22.1324 37.9356 22.4372 39.618 23.8265 40.4584C23.9893 40.5546 24.1595 40.636 24.337 40.7011C23.8606 42.6527 21.9578 42.7903 21.5183 42.7903C18.5309 42.1171 18.8165 38.6384 18.8298 38.4903L18.8742 38.042L18.4762 37.8319V37.8334C17.6727 37.4635 17.0572 36.7799 16.7746 35.9439C16.5748 35.1552 16.6177 34.3252 16.8944 33.5602C17.6786 34.1002 18.6093 34.3888 19.5608 34.3888C19.688 34.3888 19.8153 34.3828 19.9425 34.3695C20.3109 34.3325 20.5802 34.0055 20.5432 33.6371C20.5062 33.2687 20.1777 32.9994 19.8108 33.0364C19.7057 33.0438 17.2895 33.2421 16.6281 30.9249C15.9593 28.5856 17.5025 27.6271 17.5632 27.5901Z" fill="#2463EB"/>
<path d="M31.9262 33.158C32.5817 32.9479 33.2845 33.2956 33.5153 33.9437C33.5508 34.0295 33.6041 34.1079 33.6722 34.1715C33.8379 34.7323 34.1456 35.2398 34.5659 35.6467C34.8352 35.8968 35.2568 35.8835 35.5084 35.6156C35.7614 35.3464 35.7496 34.9247 35.4832 34.6687C35.3693 34.5592 34.3957 33.5708 35.245 32.4477C36.1595 31.2403 37.2485 31.7035 37.3742 31.7627H37.3757C37.7071 31.9269 38.1096 31.7908 38.2724 31.4593C38.4366 31.1279 38.3005 30.7254 37.969 30.5612C36.6122 29.9471 35.0098 30.4029 34.1781 31.6384C34.0376 31.8233 33.9162 32.0231 33.8171 32.2332C33.1735 31.7641 32.3449 31.6265 31.5829 31.8618C31.4097 31.9077 31.2633 32.0186 31.173 32.1725C31.0828 32.3264 31.0576 32.5099 31.1035 32.6815C31.1493 32.8547 31.2618 33.0011 31.4157 33.0914C31.5696 33.1802 31.753 33.2039 31.9262 33.158Z" fill="#2463EB"/>
</svg>
