<svg width="48" height="48" viewBox="0 0 48 48" fill="none" xmlns="http://www.w3.org/2000/svg">
<path d="M47.1159 45.7569C47.6285 46.2696 47.6285 47.1026 47.1159 47.6152C46.8596 47.8715 46.5219 47.9997 46.1867 47.9997C45.8515 47.9997 45.5139 47.8715 45.2576 47.6152L23.8408 26.1984L2.42395 47.6152C2.16764 47.8715 1.82999 47.9997 1.49479 47.9997C1.15958 47.9997 0.821969 47.8715 0.565623 47.6152C0.0529954 47.1026 0.0529954 46.2696 0.565623 45.7569L21.9824 24.3401L0.565623 2.92332C0.0529954 2.41069 0.0529954 1.57768 0.565623 1.06505C1.07825 0.552423 1.91126 0.552423 2.42389 1.06505L23.8407 22.4819L45.2575 1.06505C45.7701 0.552423 46.6031 0.552423 47.1158 1.06505C47.6284 1.57768 47.6284 2.41069 47.1158 2.92332L25.699 24.3401L47.1159 45.7569Z" fill="#111827"/>
</svg>
