<svg width="60" height="60" viewBox="0 0 60 60" fill="none" xmlns="http://www.w3.org/2000/svg">
<rect y="0.607666" width="59.1528" height="59.1528" rx="10" fill="#DFF1FE"/>
<path d="M34.0955 15.7269H34.1046H34.0955ZM34.0955 15.7269L29.5782 26.5683L38.6128 31.8048L25.061 44.6375L29.5782 33.796L20.5437 28.5559L34.0955 15.7269ZM34.0955 12.113C33.1687 12.1165 32.2778 12.4724 31.6038 13.1086L18.0574 25.9287C17.6493 26.3157 17.3371 26.7926 17.1458 27.3215C16.9544 27.8504 16.8891 28.4166 16.9552 28.9751C17.0853 30.1063 17.7448 31.1109 18.7295 31.6819L25.0212 35.3337L21.7218 43.2498C21.494 43.7992 21.4052 44.3963 21.4631 44.9882C21.5211 45.5801 21.724 46.1487 22.0539 46.6435C22.3839 47.1384 22.8307 47.5443 23.3549 47.8253C23.879 48.1064 24.4644 48.2539 25.0592 48.2549C25.959 48.2549 26.8534 47.9188 27.5437 47.2647L41.0955 34.4302C41.5034 34.0434 41.8154 33.5668 42.0067 33.0383C42.198 32.5097 42.2635 31.9438 42.1977 31.3856C42.1327 30.8275 41.9385 30.2923 41.6305 29.8225C41.3225 29.3526 40.9092 28.961 40.4233 28.6788L34.1317 25.0325L37.3642 17.2754C37.6256 16.7243 37.7432 16.116 37.7061 15.5072C37.6691 14.8984 37.4785 14.3089 37.1522 13.7936C36.826 13.2783 36.3745 12.854 35.8401 12.5601C35.3056 12.2663 34.7055 12.1125 34.0955 12.113Z" fill="#2463EB"/>
</svg>
