<svg width="60" height="44" viewBox="0 0 60 44" fill="none" xmlns="http://www.w3.org/2000/svg">
<path d="M2.9976 0.742188C1.40493 0.742188 0.11377 2.03327 0.11377 3.62602C0.11377 5.21876 1.40493 6.50985 2.9976 6.50985H56.3485C57.9412 6.50985 59.2323 5.21876 59.2323 3.62602C59.2323 2.03327 57.9412 0.742188 56.3485 0.742188H2.9976ZM2.9976 19.4871C1.40493 19.4871 0.11377 20.7782 0.11377 22.3709C0.11377 23.9637 1.40493 25.2548 2.9976 25.2548H56.3485C57.9412 25.2548 59.2323 23.9637 59.2323 22.3709C59.2323 20.7782 57.9412 19.4871 56.3485 19.4871H2.9976ZM2.9976 38.232C1.40493 38.232 0.11377 39.5231 0.11377 41.1158C0.11377 42.7086 1.40493 43.9997 2.9976 43.9997H56.3485C57.9412 43.9997 59.2323 42.7086 59.2323 41.1158C59.2323 39.5231 57.9412 38.232 56.3485 38.232H2.9976Z" fill="#2463EB"/>
</svg>
