<svg width="60" height="60" viewBox="0 0 60 60" fill="none" xmlns="http://www.w3.org/2000/svg">
<rect y="0.456787" width="59.1528" height="59.1528" rx="10" fill="#DFF1FE"/>
<path d="M37.1315 14.6294C34.2102 14.6294 31.4065 15.9893 29.5765 18.1383C27.7465 15.9893 24.9427 14.6294 22.0215 14.6294C16.8505 14.6294 12.7876 18.6923 12.7876 23.8633C12.7876 30.2095 18.4958 35.3804 27.1421 43.2376L29.5765 45.437L32.0109 43.2208C40.6571 35.3804 46.3653 30.2095 46.3653 23.8633C46.3653 18.6923 42.3024 14.6294 37.1315 14.6294ZM29.7444 40.7361L29.5765 40.904L29.4086 40.7361C21.4171 33.5001 16.1454 28.7153 16.1454 23.8633C16.1454 20.5055 18.6637 17.9872 22.0215 17.9872C24.607 17.9872 27.1253 19.6493 28.0151 21.9493H31.1546C32.0276 19.6493 34.546 17.9872 37.1315 17.9872C40.4892 17.9872 43.0076 20.5055 43.0076 23.8633C43.0076 28.7153 37.7359 33.5001 29.7444 40.7361Z" fill="#2463EB"/>
</svg>
