<svg width="19" height="23" viewBox="0 0 19 23" fill="none" xmlns="http://www.w3.org/2000/svg">
<path d="M10.6506 9.08724C10.8156 8.63348 11.5146 8.63348 11.6795 9.08724L12.6469 11.7506C12.8599 12.3361 13.2186 12.8681 13.6948 13.3043C14.1709 13.7406 14.7514 14.0692 15.3901 14.2641L18.2938 15.151C18.7888 15.3023 18.7888 15.943 18.2938 16.0943L15.3886 16.9811C14.75 17.1764 14.1697 17.5053 13.6939 17.9418C13.218 18.3783 12.8595 18.9104 12.6469 19.496L11.6795 22.158C11.644 22.2574 11.5751 22.3439 11.4827 22.4053C11.3903 22.4666 11.2792 22.4996 11.1651 22.4996C11.051 22.4996 10.9399 22.4666 10.8475 22.4053C10.7551 22.3439 10.6862 22.2574 10.6506 22.158L9.68325 19.4947C9.47047 18.9093 9.11193 18.3775 8.63605 17.9412C8.16017 17.5049 7.58002 17.1762 6.94155 16.9811L4.03636 16.0943C3.92798 16.0617 3.8336 15.9985 3.76669 15.9138C3.69978 15.8291 3.66375 15.7272 3.66375 15.6226C3.66375 15.5181 3.69978 15.4162 3.76669 15.3315C3.8336 15.2468 3.92798 15.1836 4.03636 15.151L6.94155 14.2641C7.58002 14.0691 8.16017 13.7404 8.63605 13.3041C9.11193 12.8678 9.47047 12.336 9.68325 11.7506L10.6506 9.08724ZM4.85677 2.07608C4.87828 2.01654 4.91971 1.96472 4.97517 1.92799C5.03064 1.89127 5.09732 1.8715 5.16574 1.8715C5.23416 1.8715 5.30084 1.89127 5.3563 1.92799C5.41177 1.96472 5.4532 2.01654 5.4747 2.07608L6.05514 3.67384C6.31461 4.38609 6.92355 4.94434 7.70047 5.18222L9.44328 5.71435C9.50823 5.73406 9.56475 5.77205 9.60481 5.82289C9.64487 5.87374 9.66644 5.93487 9.66644 5.9976C9.66644 6.06032 9.64487 6.12145 9.60481 6.1723C9.56475 6.22315 9.50823 6.26113 9.44328 6.28085L7.70047 6.81298C7.31707 6.92963 6.96868 7.12674 6.68303 7.38861C6.39739 7.65048 6.18238 7.96987 6.05514 8.32136L5.4747 9.91911C5.4532 9.97866 5.41177 10.0305 5.3563 10.0672C5.30084 10.1039 5.23416 10.1237 5.16574 10.1237C5.09732 10.1237 5.03064 10.1039 4.97517 10.0672C4.91971 10.0305 4.87828 9.97866 4.85677 9.91911L4.27633 8.32136C4.14909 7.96987 3.93408 7.65048 3.64844 7.38861C3.3628 7.12674 3.01441 6.92963 2.63101 6.81298L0.888196 6.28085C0.823244 6.26113 0.766723 6.22315 0.726662 6.1723C0.686601 6.12145 0.665039 6.06032 0.665039 5.9976C0.665039 5.93487 0.686601 5.87374 0.726662 5.82289C0.766723 5.77205 0.823244 5.73406 0.888196 5.71435L2.63101 5.18222C3.01441 5.06557 3.3628 4.86846 3.64844 4.60659C3.93408 4.34472 4.14909 4.02532 4.27633 3.67384L4.85677 2.07608ZM15.4591 0.6337C15.4739 0.594549 15.5017 0.5606 15.5385 0.536572C15.5753 0.512545 15.6194 0.499634 15.6646 0.499634C15.7098 0.499634 15.7539 0.512545 15.7907 0.536572C15.8275 0.5606 15.8553 0.594549 15.8701 0.6337L16.257 1.69795C16.4295 2.17371 16.836 2.54633 17.3549 2.70446L18.5158 3.05921C18.5585 3.07278 18.5955 3.09822 18.6217 3.13198C18.648 3.16574 18.662 3.20615 18.662 3.24759C18.662 3.28902 18.648 3.32943 18.6217 3.36319C18.5955 3.39695 18.5585 3.42239 18.5158 3.43596L17.3549 3.79071C17.0994 3.86909 16.8672 4.0008 16.6767 4.17546C16.4862 4.35013 16.3425 4.56297 16.257 4.79722L15.8701 5.86147C15.8553 5.90062 15.8275 5.93457 15.7907 5.9586C15.7539 5.98263 15.7098 5.99554 15.6646 5.99554C15.6194 5.99554 15.5753 5.98263 15.5385 5.9586C15.5017 5.93457 15.4739 5.90062 15.4591 5.86147L15.0722 4.79722C14.9867 4.56297 14.843 4.35013 14.6525 4.17546C14.462 4.0008 14.2298 3.86909 13.9743 3.79071L12.8149 3.43596C12.7722 3.42239 12.7352 3.39695 12.709 3.36319C12.6828 3.32943 12.6687 3.28902 12.6687 3.24759C12.6687 3.20615 12.6828 3.16574 12.709 3.13198C12.7352 3.09822 12.7722 3.07278 12.8149 3.05921L13.9758 2.70446C14.4947 2.54633 14.9012 2.17371 15.0737 1.69795L15.4591 0.6337Z" fill="#2463EB"/>
</svg>
